<?xml version="1.0" encoding="UTF-8" standalone="no"?> <!-- Created with Vectornator for iOS (http://vectornator.io/) --><!DOCTYPE svg PUBLIC "-//W3C//DTD SVG 1.1//EN" "http://www.w3.org/Graphics/SVG/1.1/DTD/svg11.dtd">
<svg height="100%" style="fill-rule:evenodd;clip-rule:evenodd;stroke-linecap:round;stroke-linejoin:round;" xmlns:xlink="http://www.w3.org/1999/xlink" xmlns="http://www.w3.org/2000/svg" xml:space="preserve" width="100%" xmlns:vectornator="http://vectornator.io" version="1.1" viewBox="0 0 1366 768">
<metadata>
<vectornator:setting key="DimensionsVisible" value="1"/>
<vectornator:setting key="PencilOnly" value="0"/>
<vectornator:setting key="SnapToPoints" value="0"/>
<vectornator:setting key="OutlineMode" value="0"/>
<vectornator:setting key="CMYKEnabledKey" value="0"/>
<vectornator:setting key="RulersVisible" value="1"/>
<vectornator:setting key="SnapToEdges" value="0"/>
<vectornator:setting key="GuidesVisible" value="1"/>
<vectornator:setting key="DisplayWhiteBackground" value="0"/>
<vectornator:setting key="doHistoryDisabled" value="0"/>
<vectornator:setting key="SnapToGuides" value="1"/>
<vectornator:setting key="TimeLapseWatermarkDisabled" value="0"/>
<vectornator:setting key="Units" value="Pixels"/>
<vectornator:setting key="DynamicGuides" value="0"/>
<vectornator:setting key="IsolateActiveLayer" value="0"/>
<vectornator:setting key="SnapToGrid" value="0"/>
</metadata>
<defs/>
<g id="Layer 1" vectornator:layerName="Layer 1">
<path d="M1453.41+309.658C1453.41+307.173+1453.41+304.689+1453.41+302.205C1453.41+301.14+1454.47+299.011+1453.41+299.011C1451.9+299.011+1451.28+301.14+1450.21+302.205C1448.44+303.98+1446.66+305.754+1444.89+307.528C1442.76+309.658+1440.63+311.787+1438.5+313.916C1428.73+323.685+1419.15+333.61+1409.76+343.727C1394.52+360.133+1383.27+379.957+1370.36+398.024C1363.72+407.326+1356.18+415.885+1350.14+425.705C1338.1+445.263+1328.24+465.697+1311.81+482.132C1304.66+489.283+1298.49+497.156+1290.51+503.425C1265.48+523.094+1232.09+535.377+1200.02+532.171C1192.6+531.429+1185.84+527.284+1179.79+523.653C1176.34+521.581+1176.65+515.731+1171.27+517.265C1165.95+518.787+1163.98+523.011+1160.63+526.847C1154.92+533.372+1147.7+542.874+1139.33+546.011C1130.21+549.431+1120.76+548.603+1111.65+551.334C1096.8+555.789+1083.63+565.037+1069.07+570.498C1059.18+574.204+1049.53+577.749+1040.32+583.274C1032.96+587.688+1028.93+594.508+1024.35+601.373C1013.93+617.001+1009.5+633.498+1008.38+652.477C1008+658.958+1008.07+679.003+999.864+682.287C991.502+685.631+977.988+678.534+971.118+674.834C955.656+666.509+939.601+657.717+923.209+651.412C910.451+646.505+898.089+644.546+884.881+642.895C879.115+642.174+873.632+638.857+867.847+637.571C858.693+635.537+849.081+634.155+840.165+631.183C828.753+627.379+818.291+620.44+808.226+614.149C796.918+607.081+784.263+601.293+772.028+596.05C767.533+594.124+759.88+593.106+754.993+593.921C753.208+594.218+751.455+595.283+749.67+594.985C744.143+594.064+740.127+589.32+734.765+587.533C721.324+583.052+706.528+581.868+693.243+576.886C677.108+570.835+674.213+548.29+655.98+546.011C650.181+545.286+647.816+547.387+643.204+550.27C634.043+555.995+623.274+561.83+612.329+563.046C588.435+565.7+564.034+565.175+539.933+565.175C531.681+565.175+520.27+563.17+512.252+565.175C505.133+566.955+498.169+570.661+490.959+572.627C477.747+576.231+464.364+580.481+451.566+585.403C432.8+592.621+413.513+601.373+393.01+601.373C388.552+601.373+381.135+602.765+377.041+600.308C369.047+595.512+365.293+585.367+358.941+579.015C351.296+571.37+340.868+565.636+334.454+556.658C329.604+549.867+324.953+543.153+318.485+537.494C311.884+531.718+303.792+528.365+297.192+522.589C288.724+515.18+280.344+507.484+271.64+500.231C266.999+496.364+260.416+495.669+255.67+491.714C245.995+483.651+248.988+467.476+239.7+461.903C223.052+451.915+210.265+456.13+191.791+454.451C181.61+453.525+171.418+448.015+161.98+444.869C146.262+439.63+130.407+435.948+115.136+428.899C109.146+426.135+103.052+424.12+97.0364+421.446C89.9224+418.285+82.5554+413.177+74.6786+411.865C66.098+410.434+57.0144+411.048+49.1269+406.541C41.8159+402.364+39.4082+394.195+33.1571+389.507C30.4829+387.501+26.6044+387.323+23.5752+386.313C20.1652+385.176+18.6592+384.872+15.058+386.313C11.6229+387.687+13.412+387.507+9.73469+390.571C5.02609+394.495-0.278187+398.426-4.10583+403.347C-8.09926+408.482-10.3509+414.365-14.7524+419.317C-19.1918+424.311-24.4579+430.063-29.6575+434.222C-36.5633+439.747-45.7133+443.89-52.0153+450.192C-59.0223+457.199-57.8377+469.329-65.8558+475.744C-71.3412+480.132-77.5499+481.859-83.9549+484.261C-97.811+489.457-111.512+495.153-125.476+500.231C-131.487+502.417-139.036+503.562-144.64+506.619C-150.91+510.039-156.225+514.935-161.675+519.395C-170.098+526.286-179.926+531.587-188.291+538.558C-205.282+552.717-220.242+571.276-231.942+589.662C-239.067+600.858-247.285+610.767-253.235+622.666C-254.655+625.505-256.805+628.085-257.494+631.183C-260.179+643.266-255.226+651.173-248.976+660.994C-242.123+671.763-234.669+684.333-229.813+696.127C-221.336+716.714-218.096+740.19-215.972+762.136C-213.877+783.781-213.869+805.656-209.584+827.08C-204.627+851.865-197.866+877.778-189.356+901.606C-181.578+923.383-172.404+944.628-164.869+966.55C-157.377+988.344-151.326+1011.26-142.511+1032.56C-130.949+1060.5-117.082+1088.75-103.119+1115.6C-98.3724+1124.73-92.2776+1133.33-87.1489+1142.22C-74.5451+1164.06-63.6716+1186.95-52.0153+1209.29C-44.8715+1222.98-35.5712+1235.39-29.6575+1249.75C-19.7413+1273.83-11.2992+1300.22-9.4291+1326.4C-8.3266+1341.84-9.4291+1357.77-9.4291+1373.25C-9.4291+1378.69-10.8857+1386.3-8.36445+1391.35C-4.24317+1399.59+6.44897+1406.39+15.058+1408.38C17.5031+1408.95+20.0264+1409.09+22.5105+1409.45C24.9947+1409.8+28.9239+1408.23+29.9631+1410.51C35.5059+1422.69+34.1597+1437.5+40.6097+1449.23C42.3199+1452.34+47.7074+1449.23+51.2562+1449.23C60.8447+1449.23+70.461+1449.11+80.0019+1448.16C127.637+1443.4+171.252+1429.68+216.278+1414.09C246.525+1403.62+277.785+1392.87+308.903+1385.35C394.423+1364.66+483.051+1359.82+569.743+1345.95C635.488+1335.43+700.812+1322.5+766.704+1312.95C837.789+1302.65+909.299+1297.1+980.7+1289.53C1049.07+1282.28+1116.83+1270.75+1185.11+1262.91C1225.85+1258.24+1266.73+1254.98+1307.55+1251.2C1335.3+1248.63+1362.88+1244.45+1390.59+1241.62C1437.24+1236.86+1484.25+1232.44+1531.13+1230.97C1570.14+1229.75+1611.08+1232.01+1649.3+1222.45" opacity="1" fill="#21328d"/>
<path d="M1236.75+650.202C1230.44+650.083+1229.38+648.775+1226.64+643.282C1226.19+642.384+1227.87+644.962+1228.76+645.411C1231.54+646.799+1239.85+650.261+1236.75+650.202Z" opacity="1" fill="#21328d"/>
<path d="M1274.54+664.043C1274.65+662.53+1271.6+664.876+1270.29+665.64C1264.41+669.069+1274.35+666.815+1274.54+664.043Z" opacity="1" fill="#21328d"/>
<path d="M1273.48+673.092C1272.77+672.737+1272.06+672.382+1271.35+672.027" opacity="1" fill="#21328d"/>
<path d="M1163.82+679.48C1165.44+678.671+1160.31+678.415+1158.5+678.415C1157.7+678.415+1155.59+679.324+1156.37+679.48C1158.8+679.967+1161.6+680.591+1163.82+679.48Z" opacity="1" fill="#21328d"/>
<path d="M1222.38+673.092C1217.88+682.077+1217.82+694.217+1215.99+703.967C1212.41+723.072+1204.38+740.599+1194.7+757.2C1192.08+761.677+1178.38+782.404+1170.21+774.234C1165.97+769.992+1165.9+763.666+1164.89+758.265C1162.67+746.471+1159.4+734.961+1157.43+723.131C1155.8+713.341+1159.65+705.421+1145.72+707.161C1131.92+708.886+1117.4+733.761+1114.85+746.553C1113.8+751.763+1118.01+750.17+1119.11+754.006C1119.84+756.587+1118.7+762.231+1118.04+764.652C1115.99+772.177+1112.95+778.6+1108.46+784.881C1108.34+785.049+1103.14+792.211+1103.14+792.333C1103.14+792.849+1108.26+789.256+1108.46+789.14C1110.5+787.916+1111.38+787.339+1113.78+789.14C1116.3+791.029+1114.72+799.829+1114.85+801.915C1115.07+805.475+1115.6+809.009+1115.91+812.562C1117.49+830.672+1118.4+848.756+1120.17+866.859C1124.72+913.519+1135.96+960.147+1152.11+1004.2C1158.14+1020.65+1164.78+1042.42+1177.66+1055.3C1183.58+1061.22+1190.42+1059.8+1197.89+1060.63C1202.95+1061.19+1207.86+1063.65+1212.79+1064.89" opacity="1" fill="#21328d"/>
<path d="M1188.31+1110.67C1182.91+1112.01+1171.11+1112.29+1169.14+1119.18C1168.16+1122.61+1168.43+1126.28+1168.08+1129.83" opacity="1" fill="#21328d"/>
<path d="M1185.11+614.536C1172.72+614.536+1162.98+604.159+1152.11+599.631C1144.99+596.663+1138.18+595.083+1130.82+593.243C1119.74+590.474+1109.8+584.653+1098.88+581.532C1093.31+579.94+1085.79+580.845+1080.78+578.338C1071.47+573.686+1065.28+566.086+1054.16+564.497C1046.67+563.427+1036.34+563.692+1029.67+567.691C1015.23+576.356+1003.97+592.065+986.023+594.308C969.711+596.347+958.942+583.47+943.437+581.532C934.327+580.393+925.762+582.973+916.821+583.661C905.24+584.552+892.189+584.551+880.622+583.661C868.466+582.726+854.708+573.549+842.295+577.273C838.331+578.462+835.14+581.439+831.648+583.661C823.7+588.719+815.716+594.678+807.161+598.566C798.898+602.322+789.976+604.662+781.609+608.148C769.589+613.157+758.851+622.122+746.476+626.247C739.001+628.739+730.168+629.078+723.053+632.635C711.1+638.612+701.682+651.426+687.92+653.928C676.936+655.925+665.471+652.996+654.916+650.734C646.497+648.93+637.791+648.161+629.364+646.476C617.757+644.154+606.213+639.132+595.295+634.765C583.069+629.874+571.759+620.862+560.161+614.536C544.642+606.071+524.509+600.52+506.929+598.566C495.075+597.249+482.928+599.534+471.795+601.76C461.57+603.805+450.188+600.284+439.855+601.76C433.273+602.701+425.684+608.246+420.691+612.407C414.258+617.768+406.374+622.466+400.463+628.377C392.471+636.369+387.371+650.13+375.976+653.928C367.658+656.701+354.735+657.57+346.166+656.058C340.52+655.061+335.547+651.728+330.196+649.67C321.651+646.383+312.307+644.835+303.579+642.217C296.611+640.127+289.645+637.63+282.286+636.894C268.976+635.563+251.515+635.343+238.635+639.023C221.617+643.886+207.335+654.922+192.855+664.575C161.473+685.496+130.975+711.354+115.136+746.553C102.222+775.25+91.5027+808.424+97.0364+840.243C103.726+878.708+138.392+913.684+167.304+937.127C197.722+961.79+230.76+983.547+265.252+1002.07C296.802+1019.01+329.923+1033.3+362.135+1048.92C385.846+1060.41+409.399+1072.26+433.467+1082.98C460.921+1095.22+488.766+1106.56+516.51+1118.12C545.288+1130.11+573.543+1143.41+602.747+1154.32C634.447+1166.16+659.363+1173.03+692.178+1180.93C749.483+1194.74+807.413+1201.86+865.717+1209.68C921.48+1217.16+976.675+1224.99+1032.87+1228.84C1081.09+1232.14+1129.4+1231.87+1177.66+1234.17C1220.3+1236.2+1262.81+1240.36+1305.42+1242.68C1332.71+1244.17+1360.09+1244.76+1387.4+1245.88C1416.86+1247.08+1446.32+1248.54+1475.76+1250.14C1494.15+1251.13+1512.98+1252.16+1531.13+1255.46C1565.17+1261.65+1597.18+1274.62+1632.27+1274.62" opacity="1" fill="#21328d"/>
<path d="M278.028+570.885C276.963+570.885+275.685+570.246+274.834+570.885C273.936+571.559+274.563+574.873+273.769+574.079C272.765+573.075+274.077+571.206+273.769+569.821C273.355+567.955+272.293+566.293+271.64+564.497C268.576+556.072+266.372+547.3+263.123+538.946C253.948+515.354+241.639+493.223+232.248+469.743C229.284+462.334+226.114+454.232+224.795+446.321C224.303+443.366+224.644+439.377+222.666+436.739C221.097+434.647+216.195+432.397+214.148+430.351C211.854+428.057+211.084+425.157+208.825+422.898C199.298+413.371+184.524+439.824+180.079+445.256C177.298+448.656+171.217+457.428+165.174+454.838C157.486+451.543+152.973+438.114+149.204+431.415C140.434+415.823+129.945+400.919+122.588+384.571C106.194+348.139+101.456+308.248+89.5838+270.653C81.7042+245.701+70.1798+222.022+61.9028+197.191C57.0877+182.746+51.7848+168.65+45.933+154.605C43.1928+148.029+38.6609+138.318+32.0924+134.377C21.8006+128.202+9.86739+123.754-1.97652+121.601C-8.16237+120.476-15.9095+118.772-22.205+119.472C-25.1135+119.795-27.8252+121.187-30.7222+121.601C-46.7684+123.893-69.0289+119.425-77.567+138.635C-85.3224+156.085-68.5035+171.275-64.7912+187.61C-58.7907+214.012-57.3386+240.417-57.3386+267.459C-57.3386+273.137-56.7916+278.841-57.3386+284.493C-60.5051+317.214-73.4458+348.167-79.6963+380.312C-92.4186+445.741-89.8282+525.113-62.6618+586.855C-45.6358+625.551-10.9241+628.813+26.7692+631.571C55.2929+633.658+86.3362+636.706+113.006+647.54C134.057+656.092+151.321+670.451+156.657+693.321C158.998+703.353+159.523+720.768+158.786+730.584C156.134+765.948+142.57+797.837+127.911+829.596C98.8937+892.468+62.1537+950.85+19.3166+1005.26C-1.31573+1031.47-23.4744+1056.29-43.4981+1082.98C-50.9539+1092.93-61.1092+1104.78-64.7912+1117.05C-65.816+1120.47-65.4824+1124.15-65.8558+1127.7C-66.5186+1134-67.6705+1140.49-66.9205+1146.86C-65.4231+1159.59-58.6219+1175.24-52.0153+1186.26" opacity="1" fill="#21328d"/>
<path d="M260.034+541.941C262.262+546.396+269.083+543.534+272.668+541.941C281.847+537.861+287.936+529.44+300.041+532.466C301.563+532.846+302.763+534.075+304.252+534.571C311.748+537.07+325.213+536.904+332.678+534.571C342.719+531.433+351.503+524.927+362.156+522.99C374.87+520.679+373.156+532.383+381.107+533.518C389.378+534.7+396.239+527.296+404.268+526.149C415.829+524.497+421.441+535.542+433.747+532.466C441.929+530.42+448.876+524.635+457.961+526.149C465.406+527.39+471.065+534.299+479.017+535.624C489.564+537.382+495.133+535.906+500.073+548.258C502.287+553.792+505.168+561.026+504.285+567.208C503.473+572.889+500.276+578.101+501.126+584.053C502.399+592.96+503.232+601.156+503.232+610.373C503.232+612.83+504.144+615.462+503.232+617.743C502.377+619.88+498.272+623.077+496.915+625.112C494.809+628.271+495.16+628.622+491.651+630.376C485.259+633.572+477.308+629.324+470.595+629.324C459.616+629.324+448.756+629.71+437.958+627.218C425.532+624.35+413.97+619.785+401.11+618.796C386.331+617.659+374.394+627.531+360.051+629.324C354.872+629.971+350.314+628.271+345.311+628.271C343.522+628.271+340.047+629.324+340.047+629.324C340.047+629.324+344.905+625.734+347.417+624.06C351.721+621.19+354.932+619.819+360.051+618.796C368.931+617.019+378.772+617.73+387.423+614.584C392.146+612.867+396.548+610.373+401.11+608.267C413.417+602.587+422.562+591.721+434.8+586.159C449.577+579.442+465.872+577.596+480.07+569.314C485.993+565.859+491.792+561.234+496.915+556.68C501.253+552.824+506.493+545.289+512.707+544.046C522.857+542.017+533.896+542.994+544.291+542.994C545.414+542.994+552.713+542.994+552.714+542.994C557.328+543.653+560.806+547.747+564.294+550.363C567.835+553.019+573.815+553.567+576.928+556.68C579.034+558.786+581.139+560.891+583.245+562.997C584.248+564+593.773+568.082+593.773+568.261C593.773+569.806+583.771+576.007+582.192+576.683C569.941+581.934+556.28+585.428+544.291+591.423C541.901+592.618+539.242+593.255+536.922+594.581C530.422+598.295+524.157+607.215+515.865+607.215C513.233+607.215+509.958+605.612+507.443+605.109C501.186+603.858+495.578+606.611+489.545+607.215C483.27+607.842+476.665+605.991+470.595+608.267C460.924+611.894+451.544+618.359+441.116+619.848C434.355+620.814+427.855+619.216+421.113+620.901C417.18+621.884+413.231+623.527+409.532+625.112C407.157+626.13+404.84+628.788+402.163+629.324C395.451+630.666+386.668+629.216+380.054+628.271C373.22+627.294+364.99+624.23+358.998+620.901C354.353+618.32+349.522+614.701+345.311+611.426C334.638+603.125+324.557+595.734+311.622+591.423C309.024+590.557+303.839+587.944+301.094+589.317C296.622+591.553+294.108+598.693+292.671+603.003C291.174+607.494+291.618+605.052+291.618+610.373" opacity="1" fill="#21328d"/>
<path d="M556.051+557.544C555.212+557.293+554.241+557.353+553.513+556.867C553.096+556.59+553.873+554.858+553.513+554.498C553.326+554.311+551.238+554.836+550.805+554.836C548.345+554.836+545.473+554.51+543.02+554.159C539.987+553.726+538.839+550.769+536.59+549.083C534.244+547.323+529.241+546.399+526.436+545.698C522.161+544.629+519.299+549.498+514.928+548.406C511.727+547.605+509.033+545.119+506.128+543.667C502.661+541.934+498.455+541.343+494.959+539.944C492.392+538.917+491.832+535.186+489.205+534.529C480.394+532.326+481.245+545.651+473.975+547.729C465.486+550.154+458.883+545.648+450.959+543.667C447.786+542.874+443.72+543.078+440.467+543.329C435.01+543.748+429.489+545.647+424.221+547.052C415.269+549.439+406.32+552.046+397.483+554.836C386.355+558.35+376.04+564.214+366.006+570.067C359.597+573.806+353.543+577.132+348.406+582.59C343.172+588.151+338.44+594.898+340.621+602.898C341.734+606.978+343.896+612.89+347.052+615.759C351.863+620.133+359.132+618.909+364.99+619.144C371.046+619.386+377.24+619.874+383.267+620.498C394.119+621.62+406.197+623.308+417.113+622.528C423.124+622.099+429.083+620.599+435.052+619.821C438.898+619.319+442.489+618.977+446.221+617.79C451.738+616.034+457.507+614.016+462.805+611.698C469.091+608.948+473.931+603.597+480.067+600.528C484.796+598.164+491.093+597.809+496.313+597.482C502.984+597.065+509.927+596.75+516.62+597.144C522.552+597.493+528.296+599.165+534.22+599.513C539.127+599.802+543.617+598.936+548.436+598.498C552.585+598.12+558.118+599.749+561.974+597.821C565.005+596.305+568.14+594.043+570.774+592.067C572.845+590.514+573.937+588.341+576.189+586.99C577.559+586.168+578.629+584.906+579.912+583.944C580.316+583.641+581.426+583.746+581.266+583.267C580.973+582.387+578.303+581.954+577.543+581.575C574.211+579.909+571.193+577.605+568.743+574.805C566.478+572.216+565.32+568.662+563.328+566.006C562.3+564.635+560.438+563.271+559.605+561.606C558.412+559.22+559.204+558.487+556.051+557.544Z" opacity="1" fill="#21328d"/>
</g>
</svg>
