<?xml version="1.0" encoding="UTF-8" standalone="no"?> <!-- Created with Vectornator for iOS (http://vectornator.io/) --><!DOCTYPE svg PUBLIC "-//W3C//DTD SVG 1.1//EN" "http://www.w3.org/Graphics/SVG/1.1/DTD/svg11.dtd">
<svg height="100%" style="fill-rule:evenodd;clip-rule:evenodd;stroke-linecap:round;stroke-linejoin:round;" xmlns:xlink="http://www.w3.org/1999/xlink" xmlns="http://www.w3.org/2000/svg" xml:space="preserve" width="100%" xmlns:vectornator="http://vectornator.io" version="1.1" viewBox="0 0 1366 768">
<metadata>
<vectornator:setting key="DimensionsVisible" value="1"/>
<vectornator:setting key="PencilOnly" value="0"/>
<vectornator:setting key="SnapToPoints" value="0"/>
<vectornator:setting key="OutlineMode" value="0"/>
<vectornator:setting key="CMYKEnabledKey" value="0"/>
<vectornator:setting key="RulersVisible" value="1"/>
<vectornator:setting key="SnapToEdges" value="0"/>
<vectornator:setting key="GuidesVisible" value="1"/>
<vectornator:setting key="DisplayWhiteBackground" value="0"/>
<vectornator:setting key="doHistoryDisabled" value="0"/>
<vectornator:setting key="SnapToGuides" value="1"/>
<vectornator:setting key="TimeLapseWatermarkDisabled" value="0"/>
<vectornator:setting key="Units" value="Pixels"/>
<vectornator:setting key="DynamicGuides" value="0"/>
<vectornator:setting key="IsolateActiveLayer" value="0"/>
<vectornator:setting key="SnapToGrid" value="0"/>
</metadata>
<defs/>
<g id="-" vectornator:layerName="-">
<path d="M3.80287+444.124C10.3528+447.419+16.9223+443.059+23.2332+441.192C32.2042+438.537+41.5509+437.542+50.4357+434.35C61.4744+430.384+72.1323+425.176+82.4957+419.689C125.435+396.952+165.519+369.801+204.907+341.495C215.856+333.627+224.879+323.611+235.024+315.105C240.249+310.725+244.161+304.545+249.597+300.444C251.862+298.734+255.136+299.86+256.397+302.399C260.351+310.355+257.547+320.171+264.169+326.834C277.652+340.399+294.306+342.464+311.774+334.653C327.937+327.426+342.421+316.904+356.463+306.308C374.386+292.785+393.953+281.298+409.897+265.257C420.656+254.433+431.388+242.954+442.928+233.002C449.611+227.24+458.118+222.607+464.302+216.386C470.796+209.852+477.78+203.757+485.675+198.793C498.38+190.804+510.982+181.748+522.593+172.402C528.722+167.469+534.78+159.118+542.995+157.741C559.303+155.007+551.224+186.086+563.396+186.086C567.711+186.086+569.949+179.934+572.14+177.289C578.493+169.619+584.489+161.469+589.627+152.854C604.394+128.094+622.503+104.985+639.175+81.5027C643.191+75.8454+656.235+56.5668+663.463+55.1125C671.615+53.4721+671.705+68.6358+672.206+73.6834C673.479+86.4858+671.375+100.081+673.178+112.78C674.045+118.884+679.929+124.426+682.893+129.396C684.533+132.146+684.96+134.132+687.751+136.238C699.174+144.858+702.788+117.01+704.266+111.803C704.672+110.373+704.834+106.528+707.181+105.938C709.207+105.429+712.677+113.423+713.982+114.735C721.868+122.669+728.941+130.679+736.326+139.17C742.496+146.264+749.529+152.647+755.757+159.696C766.957+172.373+776.309+186.226+788.788+197.815C801.091+209.241+814.51+219.684+827.649+230.07C832.24+233.699+837.514+236.371+842.222+239.844C864.857+256.544+887.6+273.352+911.199+288.715C916.562+292.206+922.452+294.849+927.715+298.489C934.167+302.952+935.905+305.112+942.288+309.241C948.836+313.476+955.909+316.319+962.69+319.992C971.124+324.561+980.124+331.295+989.892+332.699C1007.21+335.188+1017.02+316.003+1024.87+303.376C1030.36+294.527+1038.54+287.931+1049.15+295.557C1053.57+298.73+1057.08+304.733+1059.84+309.241C1067.85+322.331+1073.95+336.364+1080.24+350.292C1096.16+385.522+1116.16+418.295+1139.51+449.011C1166.81+484.929+1200.06+515.928+1230.83+548.708C1279.27+600.314+1321.66+657.189+1363.93+713.891" opacity="1" fill="#5e74ee"/>
<path d="M1350.29+732.039C1363.14+732.039+1371.46+753.692+1375.59+763.087C1386.21+787.213+1396.3+814.127+1400.89+840.132C1413.36+910.812+1402.17+982.809+1353.74+1037.92C1348.19+1044.23+1342.88+1050.85+1336.49+1056.32C1322.21+1068.56+1305.88+1078.38+1289.35+1087.36C1260.18+1103.22+1227.8+1114.29+1196.2+1124.16C1155.3+1136.95+1113.83+1146.1+1072.01+1155.21C976.795+1175.96+879.949+1190.86+782.232+1190.86C690.817+1190.86+600.903+1174.72+510.85+1160.96C482.556+1156.64+454.076+1153.61+425.756+1149.46C401.385+1145.89+369.68+1139.79+345.262+1135.66C272.24+1123.32+198.444+1108.74+131.377+1075.87C73.8111+1047.65+19.8749+1006.47-26.1623+962.023C-62.9483+926.506-91.8555+883.989-122.756+843.582C-127.087+837.918-131.057+831.984-135.405+826.333C-140.947+819.127-148.285+812.645-150.354+803.334C-153.342+789.889-147.935+774.26-143.454+761.937C-139.843+752.007-137.119+741.335-131.955+732.039C-120.946+712.223-106.945+693.236-104.357+669.944C-103.626+663.364-105.956+655.644-104.357+649.245C-102.761+642.863-96.6488+637.051-92.8576+631.996C-89.2395+627.172-89.7079+619.947-87.108+614.748C-84.7191+609.97-80.8689+606.38-79.0586+600.949C-77.7365+596.982-78.3154+593.341-76.7588+589.449C-74.8251+584.615-70.8756+579.582-69.8592+574.5C-69.5562+572.985-72.9617+561.396-69.8592+567.601" opacity="1" fill="#5e74ee"/>
<path d="M1052.75+307.724C1053.2+310.564+1053.15+315.251+1055.04+317.607C1057.98+321.27+1062.83+324.135+1066.13+327.56C1072.59+334.251+1078.76+341.325+1084.15+348.859C1087.22+353.162+1092.82+361.919+1098.77+362.644C1104.29+363.317+1108.01+354.758+1112.52+352.416C1118.81+349.148+1124.87+351.531+1131.05+353.872C1141.56+357.853+1145.73+370.579+1148.42+380.395C1149.35+383.76+1149.82+390.37+1152.6+392.908C1153.65+393.867+1158.81+393.999+1160.19+394.633C1164.84+396.768+1167.75+404.936+1169.11+409.322C1171.29+416.412+1171.56+424.841+1172.73+432.169C1175.32+448.573+1176.55+465.204+1179.81+481.546C1182.15+493.242+1185.22+505.19+1186.18+517.131C1186.79+524.703+1185.52+533.728+1187.77+541.032C1190.58+550.127+1197.2+556.361+1197.67+566.544C1197.95+572.57+1197.19+578.786+1197.64+584.845C1198.45+595.799+1200.41+606.943+1202.13+617.801C1203.62+627.195+1203.38+637.162+1205.94+646.473C1207.45+651.983+1210.43+656.888+1212.11+662.329C1213.09+665.52+1212.71+669.133+1213.69+672.324C1214.85+676.072+1222.89+687.852+1226.03+690.131" opacity="1" fill="#5e74ee"/>
<path d="M132.635+437.963C122.402+432.846+119.862+440.459+111.252+443.903C98.8779+448.852+85.5754+451.775+72.0481+449.843C59.588+448.063+47.6236+442.406+35.2206+440.339C29.2946+439.351+22.2215+440.339+16.2128+440.339C4.72709+440.339-6.91823+440.112-18.2387+441.527C-24.6246+442.325-30.8592+444.292-37.2465+445.091C-46.8324+446.289-56.1794+448.474-65.7581+449.843C-70.7043+450.549-76.6854+450.697-81.2019+453.407C-106.753+468.737-108.738+503.506-116.841+529.438C-131.641+576.795-136.339+645.886-116.841+692.192C-110.043+708.339-100.639+723.841-93.0818+739.711C-86.9291+752.632-81.1447+765.928-72.886+777.726C-63.6995+790.85-52.3167+801.247-40.8104+812.178C-36.7503+816.035-33.2649+820.512-28.9306+824.058C-14.6673+835.728+2.37712+845.402+17.4008+856.133C123.648+932.024+246.892+982.474+373.796+1011.76C414.53+1021.16+456.054+1026.91+497.347+1033.14C538.831+1039.4+580.305+1046.95+622.085+1050.96C692.352+1057.72+764.191+1058.31+834.734+1056.9C863.363+1056.33+890.696+1051.67+919.081+1048.59C944.314+1045.84+969.805+1043.41+995.112+1041.46C1039.42+1038.05+1085.04+1035.25+1128.17+1023.64C1145.44+1018.99+1166.68+1013.46+1182.81+1005.82C1202.01+996.727+1220.02+986.562+1241.03+982.06C1246.5+980.886+1252.2+980.943+1257.66+979.684C1276.14+975.419+1294.64+967.301+1312.3+960.676C1325.24+955.825+1337.58+961.072+1349.13+951.172C1358.36+943.26+1363.31+932.239+1371.7+923.849C1375.25+920.3+1380.8+919.559+1384.77+916.721C1388.78+913.857+1393.69+908.785+1396.65+904.841C1401.88+897.875+1404.29+889.699+1408.53+882.269C1411.51+877.056+1416.91+872.219+1419.22+866.825C1422.87+858.326+1426.6+848.848+1427.54+839.502C1428.81+826.79+1427.24+812.753+1425.16+800.298C1423.94+792.981+1419.26+786.288+1418.03+778.914C1417.51+775.743+1419.62+769.809+1420.41+767.035C1423.26+757.062+1433.83+747.673+1440.61+740.899C1442.19+739.315+1443.77+739.315+1445.36+740.899C1445.98+741.525+1445.92+743.901+1446.55+743.275C1447.53+742.288+1447.07+736.815+1448.92+734.959C1452.64+731.246+1457.84+727.218+1459.61+721.891" opacity="1" fill="#5e74ee"/>
</g>
</svg>
