<?xml version="1.0" encoding="UTF-8" standalone="no"?> <!-- Created with Vectornator for iOS (http://vectornator.io/) --><!DOCTYPE svg PUBLIC "-//W3C//DTD SVG 1.1//EN" "http://www.w3.org/Graphics/SVG/1.1/DTD/svg11.dtd">
<svg height="100%" style="fill-rule:evenodd;clip-rule:evenodd;stroke-linecap:round;stroke-linejoin:round;" xmlns:xlink="http://www.w3.org/1999/xlink" xmlns="http://www.w3.org/2000/svg" xml:space="preserve" width="100%" xmlns:vectornator="http://vectornator.io" version="1.1" viewBox="0 0 1366 768">
<metadata>
<vectornator:setting key="DimensionsVisible" value="1"/>
<vectornator:setting key="PencilOnly" value="0"/>
<vectornator:setting key="SnapToPoints" value="0"/>
<vectornator:setting key="OutlineMode" value="0"/>
<vectornator:setting key="CMYKEnabledKey" value="0"/>
<vectornator:setting key="RulersVisible" value="1"/>
<vectornator:setting key="SnapToEdges" value="0"/>
<vectornator:setting key="GuidesVisible" value="1"/>
<vectornator:setting key="DisplayWhiteBackground" value="0"/>
<vectornator:setting key="doHistoryDisabled" value="0"/>
<vectornator:setting key="SnapToGuides" value="1"/>
<vectornator:setting key="TimeLapseWatermarkDisabled" value="0"/>
<vectornator:setting key="Units" value="Pixels"/>
<vectornator:setting key="DynamicGuides" value="0"/>
<vectornator:setting key="IsolateActiveLayer" value="0"/>
<vectornator:setting key="SnapToGrid" value="0"/>
</metadata>
<defs/>
<g id="Layer 3" vectornator:layerName="Layer 3">
<path d="M1552.42+548.528C1542.39+546.021+1536.93+558.459+1532.19+565.562C1516.88+588.529+1503.67+612.734+1488.54+635.829C1476.07+654.859+1449.69+696.96+1421.47+692.256C1412.16+690.704+1401.73+675.619+1392.72+679.48C1386.67+682.073+1382.74+690.493+1378.88+695.45C1372.65+703.461+1365.22+711.265+1357.59+717.808C1353.45+721.354+1350.03+725.909+1343.75+724.196C1334.91+721.785+1325.71+714.12+1318.2+709.29C1299.81+697.473+1281.99+684.333+1271.35+664.575C1251.91+628.462+1238.3+593.239+1191.5+588.984C1182.15+588.134+1172.2+587.061+1162.76+587.92C1143.62+589.659+1122.57+598.032+1105.26+606.019C1097.59+609.561+1088.57+612.446+1081.84+617.73C1061.54+633.685+1049.09+657.397+1026.48+670.963C1014.51+678.147+999.432+678.586+986.023+679.48C974.123+680.273+962.688+678.088+950.89+677.351C934.839+676.348+918.702+678.873+902.98+674.157C893.95+671.448+885.815+663.627+876.364+662.446C867.249+661.306+857.482+665.258+849.747+669.898C848.887+670.415+848.592+671.784+847.618+672.027C845.611+672.529+844.017+669.981+842.295+668.834C837.592+665.698+831.892+663.559+826.325+662.446C802.771+657.735+778.474+658.282+754.993+652.864C742.077+649.883+729.224+642.215+717.73+635.829C713.888+633.695+709.836+633.479+706.019+631.571C701.304+629.213+695.276+624.989+690.049+624.118C683.617+623.046+677.08+622.086+670.885+625.183C667.721+626.765+664.987+628.915+661.303+629.441C648.458+631.276+633.845+631.589+620.847+630.506C611.987+629.768+602.369+629.252+594.23+625.183C580.24+618.188+572.616+601.991+554.838+604.954C539.771+607.465+530.522+620.276+521.834+631.571C509.4+647.734+497.775+666.276+483.506+680.545C481.473+682.578+480.16+686.02+478.183+687.997C468.738+697.442+456.135+695.037+444.114+698.644C422.394+705.16+399.989+709.991+377.041+708.226C358.562+706.804+341.009+701.079+322.743+698.644C292.832+694.656+261.72+692.535+233.312+681.609C225.451+678.586+216.152+673.335+209.89+667.769C195.577+655.047+192.979+642.475+170.498+641.152C149.744+639.932+130.885+644.868+110.877+649.67C88.4795+655.045+66.2932+660.751+43.8036+665.64C30.4637+668.54+17.2029+671.829+3.34676+670.963C-18.8638+669.575-29.3507+653.779-44.5627+640.088C-55.7366+630.031-67.9344+622.586-82.8903+620.924C-89.1921+620.224-96.9199+618.169-103.119+620.924C-130.28+632.996-140.77+679.536-145.705+705.032C-146.869+711.046-148.183+717.047-148.899+723.131C-151.127+742.074-149.964+761.603-149.964+780.622C-149.964+834.969-140.943+887.457-124.412+939.256C-116.294+964.693-106.981+989.635-91.4075+1011.65C-56.3903+1061.16-0.324981+1088.6+52.3209+1114.92C100.554+1139.04+149.623+1159.89+201.373+1175.61C245.754+1189.09+291.111+1196.83+336.584+1205.42C388.963+1215.31+441.365+1223.43+494.153+1230.97C590.944+1244.8+687.647+1260.35+784.803+1271.43C865.495+1280.63+946.456+1286.36+1027.54+1290.59C1108.83+1294.83+1190.53+1298.5+1271.35+1308.69C1341.65+1317.56+1411.65+1331.77+1480.02+1350.21C1553.6+1370.05+1626.84+1391.09+1700.41+1410.9C1743.67+1422.55+1786.74+1436.89+1831.36+1442.84C1844.41+1444.58+1857.64+1443.9+1870.75+1443.9" opacity="1" fill="#0b1860"/>
<path d="M1155.55+659.135C1153.52+657.617+1149.37+657.253+1149.37+654.722C1149.37+651.208+1156.73+642.938+1158.19+640.6C1167.9+625.066+1176.77+612.65+1191.74+601.764C1200.1+595.679+1211.99+597.38+1220.86+592.055C1225.9+589.034+1228.74+583.282+1233.22+579.698C1236.81+576.824+1242.27+576.83+1245.58+573.52C1252.4+566.699+1256.34+557.291+1260.58+548.806C1261.9+546.16+1262.84+542.131+1264.99+539.979C1267.83+537.139+1272.98+535.545+1276.47+533.801C1285+529.533+1294.36+525.329+1302.06+519.679C1314.38+510.648+1324.62+499.054+1337.37+490.552C1351.26+481.293+1363.7+469.886+1378.85+462.307C1382.85+460.31+1391.19+456.706+1395.62+459.66C1400.93+463.194+1403.2+470.891+1405.33+476.43C1409.87+488.235+1411.48+502.363+1419.46+512.618C1425.71+520.655+1433.08+524.621+1442.4+528.505C1445.25+529.691+1451.5+531.089+1453.88+532.918C1456.6+535.009+1463.12+544.471+1464.47+547.041C1481.45+579.452+1482.12+617.347+1482.12+652.957C1482.12+686.795+1481.02+720.861+1485.65+754.46C1487.58+768.451+1490+782.288+1493.6+795.944C1496.47+806.871+1501.52+817.051+1505.07+827.719C1513.34+852.518+1519.89+877.9+1530.67+901.861C1537.97+918.097+1547.41+933.586+1555.38+949.523C1559.01+956.776+1562.42+964.28+1563.33+972.472C1565.22+989.489+1562.78+1008.46+1557.15+1024.55C1552.61+1037.52+1545.67+1052.85+1545.67+1066.91" opacity="1" fill="#0b1860"/>
<path d="M1246.46+596.468C1237.86+596.468+1228.16+591.251+1219.98+588.525C1210.8+585.465+1199.5+585.788+1189.97+584.994C1175.63+583.799+1162.05+579.698+1147.6+579.698C1145.25+579.698+1142.81+579.052+1140.54+579.698C1134.68+581.372+1131.9+590.899+1129.95+595.586C1126.03+604.993+1122.51+612.314+1111.42+613.238C1102.3+613.998+1093.19+613.64+1084.05+614.121C1063.82+615.186+1043.93+620.651+1024.92+627.361C1015.61+630.644+1005.79+634.651+998.438+641.483C990.765+648.607+985.954+658.61+981.668+667.962C972.128+688.775+965.62+711.94+967.545+735.042C969.33+756.454+973.967+776.471+961.367+795.944C955.601+804.854+947.781+810.187+939.301+816.245C922.827+828.012+904.541+836.656+887.225+847.137C834.207+879.227+780.153+909.97+723.938+936.284C699.497+947.724+674.055+957.123+649.796+968.941C632.907+977.169+616.244+987.159+600.368+997.185C552.931+1027.15+510.913+1066.51+460.029+1090.75C441.26+1099.68+423.85+1112.6+409.719+1127.82C400.113+1138.16+394.163+1150.44+382.357+1158.71C368.852+1168.16+348.168+1167.78+337.343+1180.77C335.279+1183.25+334.901+1185.93+332.047+1187.84C329.385+1189.61+326.533+1190.82+331.164+1193.13" opacity="1" fill="#0b1860"/>
<path d="M1089.35+650.309C1087.14+648.098+1085.72+645.066+1083.17+643.248C1078.37+639.817+1070.23+641.483+1064.64+641.483C1044.5+641.483+1025.55+648.767+1005.5+650.309C997.816+650.9+990.142+650.059+982.55+649.426C969.948+648.376+957.103+650.818+944.597+648.544C930.668+646.011+917.775+639.7+903.113+642.365C899.451+643.031+896.16+645.116+892.521+645.896C882.967+647.943+873.719+650.334+864.277+652.957C844.824+658.36+812.596+669.123+808.671+692.676C807.362+700.53+814.965+709.895+819.262+715.624C832.42+733.168+854.254+739.726+873.986+747.399C881.207+750.207+888.832+752.355+895.169+757.108C903.565+763.405+917.322+777.671+920.766+788.001C925.124+801.076+927.774+820.937+935.77+832.132C940.278+838.443+947.038+843.4+952.541+848.902" opacity="1" fill="#0b1860"/>
<path d="M271.615+736.709C258.97+736.709+259.17+715.491+257.929+706.178C254.44+680.014+246.31+650.332+229.503+629.324C223.881+622.296+216.156+624.292+208.447+623.007C194.499+620.682+180.05+621.262+166.335+616.69C162.942+615.559+161.852+613.922+158.965+612.479C154.985+610.488+150.079+610.025+146.332+607.215C136.927+600.162+132.199+588.419+123.17+580.895C118.822+577.271+111.827+575.897+106.325+576.683C104.212+576.985+102.114+578.087+100.008+577.736C97.1398+577.258+94.9277+572.198+92.6386+570.367C86.6846+565.603+79.4475+562.67+73.6881+557.733C54.8603+541.595+42.2485+519.474+26.312+500.882C20.0691+493.598+8.2701+496.155+3.15029+487.195C-0.17651+481.373-2.27134+474.702-6.32494+469.297C-9.76454+464.711-14.8993+460.723-18.9586+456.664C-22.1114+453.511-26.4434+448.007-31.5922+449.294C-43.6071+452.298-48.0787+467.928-52.6483+477.72C-63.4101+500.781-70.73+525.566-80.0212+549.311C-87.5476+568.545-96.4841+588.058-101.077+608.267C-109.245+644.206-112.353+681.088-113.711+717.759C-114.737+745.466-115.931+772.479-111.605+799.878C-106.978+829.182-107.603+866.366-92.6548+892.524C-88.7347+899.385-81.3349+905.95-75.8099+911.475C-37.3648+949.92+21.4706+949.02+70.5297+964.115C79.26+966.801+87.0484+972.018+95.797+974.643C104.011+977.107+116.294+977.565+123.17+983.065C129.475+988.11+129.886+995.119+132.645+1002.02C135.537+1009.25+142.503+1017.47+149.49+1020.97C158.376+1025.41+168.445+1025.1+177.916+1027.28C194.374+1031.08+211.096+1036.95+226.345+1044.13C235.709+1048.53+244.447+1054.5+253.717+1058.87C268.295+1065.73+284.529+1069.54+298.988+1076.76C314.797+1084.67+329.418+1094.28+346.364+1099.93C359.604+1104.34+374.105+1103.3+387.423+1107.3C393.127+1109.01+398.078+1111.51+404.268+1111.51" opacity="1" fill="#0b1860"/>
<path d="M204.236+675.647C203.534+675.296+201.905+675.346+202.13+674.594C203.168+671.133+205.664+668.291+207.394+665.119C208.943+662.278+211.653+659.691+214.764+658.802C221.488+656.881+228.533+660.26+234.767+661.96C243.824+664.431+253.847+666.172+263.193+666.172C266.935+666.172+275.679+664.58+278.985+667.224C283.17+670.573+283.639+678.444+284.249+683.017C285.848+695.011+285.548+709.583+294.777+718.812C300.395+724.43+311.847+725.906+318.991+728.287C335.676+733.849+352.657+737.762+370.579+737.762C379.566+737.762+393.733+735.069+402.163+738.815C416.689+745.271+422.315+761.246+428.483+774.61C436.312+791.573+443.034+811.653+457.961+824.092C467.38+831.941+479.569+829.431+490.598+833.567C502.971+838.207+515.491+840.875+528.499+843.043C530.518+843.379+531.933+845.286+533.763+846.201C537.328+847.984+541.59+849.004+545.344+850.412C555.916+854.377+566.584+858.613+576.928+863.046C577.244+863.181+587.191+866.469+585.35+868.31C583.23+870.43+579.499+866.694+576.928+865.151" opacity="1" fill="#0b1860"/>
</g>
</svg>
