<?xml version="1.0" encoding="UTF-8" standalone="no"?> <!-- Created with Vectornator for iOS (http://vectornator.io/) --><!DOCTYPE svg PUBLIC "-//W3C//DTD SVG 1.1//EN" "http://www.w3.org/Graphics/SVG/1.1/DTD/svg11.dtd">
<svg height="100%" style="fill-rule:evenodd;clip-rule:evenodd;stroke-linecap:round;stroke-linejoin:round;" xmlns:xlink="http://www.w3.org/1999/xlink" xmlns="http://www.w3.org/2000/svg" xml:space="preserve" width="100%" xmlns:vectornator="http://vectornator.io" version="1.1" viewBox="0 0 1366 768">
<metadata>
<vectornator:setting key="DimensionsVisible" value="1"/>
<vectornator:setting key="PencilOnly" value="0"/>
<vectornator:setting key="SnapToPoints" value="0"/>
<vectornator:setting key="OutlineMode" value="0"/>
<vectornator:setting key="CMYKEnabledKey" value="0"/>
<vectornator:setting key="RulersVisible" value="1"/>
<vectornator:setting key="SnapToEdges" value="0"/>
<vectornator:setting key="GuidesVisible" value="1"/>
<vectornator:setting key="DisplayWhiteBackground" value="0"/>
<vectornator:setting key="doHistoryDisabled" value="0"/>
<vectornator:setting key="SnapToGuides" value="1"/>
<vectornator:setting key="TimeLapseWatermarkDisabled" value="0"/>
<vectornator:setting key="Units" value="Pixels"/>
<vectornator:setting key="DynamicGuides" value="0"/>
<vectornator:setting key="IsolateActiveLayer" value="0"/>
<vectornator:setting key="SnapToGrid" value="0"/>
</metadata>
<defs/>
<g id="Layer 2" vectornator:layerName="Layer 2">
<path d="M-76.2167+114.579L-318.185+1257.39C-311.986+1257.39-305.948+1259.4-299.779+1260.02C-284.724+1261.52-267.105+1260.43-252.435+1257.39C-232.031+1253.17-213.753+1243.92-194.56+1236.36C-156.017+1221.18-115.613+1207.66-74.9042+1199.52C-65.7857+1197.69-56.4574+1197.07-47.2792+1195.58C-6.98694+1189.02+33.062+1180.27+72.3771+1169.27C131.471+1152.72+187.652+1128.82+245.971+1110.11C314.39+1088.16+384.097+1070.96+453.752+1053.55C487.614+1045.08+521.47+1036.92+555.033+1027.23C598.33+1014.75+640.487+998.495+683.908+986.485C731.979+973.188+780.58+961.894+828.565+948.36C867.402+937.406+906.882+924.085+944.283+908.891C957.784+903.407+971.241+897.718+985.065+893.11C1020.77+881.208+1058.27+877.45+1094.22+866.797C1127.66+856.89+1158.32+836.989+1188.91+820.797C1206.39+811.542+1224.09+804.197+1238.88+790.547C1252.85+777.648+1261.63+759.386+1273.06+744.516C1296.99+713.416+1318.56+685.942+1329.63+647.204C1334.43+630.404+1334.8+613.004+1337.5+595.891C1340.65+575.926+1345.25+554.902+1350.66+535.422C1357.15+512.05+1365.21+489.029+1371.69+465.704C1375.92+450.462+1378.53+434.693+1383.53+419.672C1396.7+380.159+1410.89+341.44+1416.41+300.016C1419.22+278.925+1427.58+242.78+1411.16+226.36C1409.63+224.828+1407.65+220.863+1405.88+219.797C1397.72+214.903+1372.48+224.934+1362.5+226.36C1357.78+227.035+1352.76+225.685+1348.03+226.36C1337.5+227.864+1327.6+234.189+1318.06+239.985C1316.06+247.938+1312.07+254.651+1306.16+260.61C1301.8+265.005+1297.71+268.032+1289.25+273.704C1289.12+273.79+1288.28+274.382+1288.03+274.547C1279.08+280.557+1275.04+283.716+1271.6+287.922C1268.05+292.257+1265.07+296.155+1259.22+303.985C1258.61+304.808+1258.27+305.245+1258+305.61C1246.8+320.591+1240.83+327.975+1232.78+336.016C1229.17+339.626+1225.01+342.242+1219.97+344.891C1219.69+345.263+1219.45+345.683+1219.16+346.047C1215.62+350.466+1210.21+354.347+1207.31+359.172C1204.97+363.079+1202.75+367.675+1199.41+371.016C1195.4+375.028+1188.18+374.194+1183.63+377.61C1183.34+377.826+1183.09+378.121+1182.81+378.36C1182.48+379.124+1182.3+379.432+1181.94+380.266C1181.64+380.947+1181.49+381.299+1181.35+381.641C1176.83+392.067+1174.12+397.463+1169.97+403.266C1164.23+411.291+1157.15+417.216+1148.03+421.016C1139.68+424.497+1130.84+426.232+1120.88+426.641C1113.58+426.941+1107.52+426.635+1095.22+425.641C1094.91+425.616+1094.91+425.604+1094.6+425.579C1072.63+423.802+1063.38+424.047+1052.88+427.797C1048.32+429.426+1046.23+431.677+1041.94+439.047C1041.47+439.862+1041.22+440.276+1040.97+440.704C1037.12+447.274+1034.2+451.229+1029.53+455.047C1024.34+459.293+1017.72+462.567+1007.85+466.454C1007.72+466.505+995.638+471.11+992.94+472.266C983.436+476.339+973.793+478.25+962.533+478.766C957.402+479.002+953.428+478.963+944.44+478.735C931.234+478.399+925.348+478.511+918.096+479.547C911.11+480.545+905.507+482.924+893.19+489.485C892.47+489.868+892.137+490.063+891.752+490.266C877.158+498.025+869.073+501.21+858.221+501.985C848.827+502.656+842.383+501.125+829.815+496.547C829.72+496.513+829.69+496.519+829.596+496.485C817.723+492.16+812.746+491.168+805.533+492.61C801.229+493.471+783.124+497.359+779.346+498.141C764.619+501.186+752.702+503.27+741.065+504.672C708.92+508.545+684.197+506.313+666.69+495.172C658.568+490.004+651.42+482.353+644.377+472.016C639.179+464.387+634.851+456.755+627.596+442.985C627.432+442.673+624.918+437.926+624.19+436.547C609.836+409.368+601.424+398.149+591.502+395.047C582.028+392.087+572.287+391.912+561.19+394.172C552.321+395.978+544.879+398.497+528.815+404.766C520.348+408.07+516.982+409.353+512.408+410.954C494.892+417.082+481.107+419.53+467.002+417.766C430.182+413.164+406.341+411.372+384.627+412.579C378.182+412.937+372.857+413.684+361.127+415.672C361.032+415.689+361.035+415.687+360.94+415.704C347.382+418.001+341.235+418.819+333.19+419.141C325.612+419.444+319.59+419.347+306.096+418.891C304.938+418.852+304.4+418.851+303.752+418.829C289.349+418.35+281.543+418.35+273.19+419.11C268.222+419.561+263.246+420.867+254.846+423.704C254.097+423.956+253.51+424.159+252.096+424.641C243.591+427.541+239.663+428.756+234.565+429.86C227.423+431.405+220.85+431.825+214.315+430.891C209.319+430.177+205.002+428.311+201.127+425.422C198.373+423.369+196.382+421.346+193.252+417.735C193.09+417.548+192.261+416.59+192.033+416.329C189.507+413.417+188.035+411.946+186.377+410.797C183.639+408.902+180.444+407.609+173.44+405.36C173.039+405.231+173.032+405.24+172.627+405.11C165.611+402.86+162.335+401.64+158.44+399.579C155.382+397.96+151.635+395.416+145.127+390.735C144.82+390.514+144.808+390.518+144.502+390.297C135.484+383.802+134.783+383.303+133.002+382.235C126.429+378.291+119.51+376.111+107.44+373.672C106.376+373.457+105.662+373.311+103.533+372.891C85.9618+369.424+77.9303+367.029+68.4083+361.079C60.8748+356.37+56.7031+351.311+50.4708+341.204C50.3351+340.983+48.4779+337.947+48.1271+337.391C46.8425+335.356+45.7529+333.757+44.6583+332.297C41.7271+328.389+38.6889+324.724+33.9083+319.266C33.2188+318.479+30.3152+315.186+29.5646+314.329C15.1907+297.912+8.24208+287.601+3.65833+272.704C0.588464+262.726-0.269557+254.735-1.06042+237.204C-1.06245+237.158-1.08963+237.155-1.09167+237.11C-1.25959+233.387-1.42468+231.162-1.59167+228.516C-2.82893+226.942-4.13047+225.423-5.18542+223.735C-17.2572+204.42-31.0138+185.687-42.0292+165.86C-51.6541+148.535-56.9176+124.228-76.2167+114.579Z" opacity="1" fill="#3d50bc"/>
<path d="M805.219+525C805.034+525.012+804.745+525.019+804.562+525.031C804.54+525.076+804.492+525.111+804.469+525.156C804.661+525.116+805.009+525.045+805.219+525Z" opacity="1" fill="#3d50bc"/>
<path d="M1335.72+451.844C1323.54+452.029+1311.4+455.354+1305.59+466.969L829.562+899.625C837.397+902.236+838.264+907.017+842.688+914.094C851.93+928.881+860.524+944.388+870.312+958.812C889.608+987.248+916.331+1012.15+943.969+1032.47C966.769+1049.23+992.183+1063.5+1017.59+1075.88C1051.3+1092.3+1088.56+1107.77+1125.44+1115.31C1168.61+1124.14+1215.66+1122.21+1258.25+1111.38C1297.11+1101.48+1335.31+1083.47+1368.72+1061.41C1404.12+1038.03+1436.76+1007.67+1464.72+975.906C1493.54+943.15+1520.64+906.198+1539.69+866.75C1545.85+853.995+1550.32+840.509+1555.47+827.312C1569.43+791.507+1581.87+756.661+1585.72+718.156C1590.04+674.956+1586.52+626.609+1562.06+589.281C1536.47+550.212+1491.65+516.968+1452.91+491.969C1446.14+487.606+1438.86+484.07+1431.84+480.125C1419.03+472.917+1406.67+463.972+1392.41+460.406C1377.72+456.736+1362.72+454.268+1347.69+452.5C1343.85+452.048+1339.78+451.782+1335.72+451.844Z" opacity="1" fill="#3d50bc"/>
<path d="M1230.89+1102.15C1226.24+1102.15+1228.73+1101.89+1223.44+1103.21" opacity="1" fill="#3d50bc"/>
<path d="M922.824+692.814C923.875+688.612+927.333+685.346+930.277+682.168C937.105+674.793+944.446+667.829+950.505+659.81C956.56+651.796+961.443+642.951+966.475+634.258C981.066+609.056+994.843+583.503+1010.13+558.668C1015.32+550.227+1019.87+540.904+1026.1+533.116C1033.02+524.46+1041.99+514.424+1051.65+508.629C1053.86+507.3+1056.65+507.317+1059.1+506.5C1067.98+503.54+1078.45+496.083+1084.65+489.465C1095.46+477.933+1103.64+463.8+1111.27+450.073C1115.24+442.92+1114.92+441.252+1119.79+435.168C1123.31+430.763+1129.04+425.072+1134.69+423.457C1141.42+421.534+1150.1+424.343+1155.98+419.198C1159.99+415.693+1162.83+410.987+1165.57+406.422C1177.46+386.603+1184.35+364.084+1192.18+342.543C1198.15+326.125+1204.65+307.426+1207.09+290.375C1208.18+282.741+1206.32+274.623+1207.09+266.952C1209.21+245.716+1219.19+214.394+1234.77+198.815C1252+181.583+1269.91+207.335+1284.81+214.784C1288.77+216.767+1294.34+217.647+1298.65+217.978C1324.1+219.937+1340.29+181.57+1350.82+163.681C1353.61+158.937+1363.45+140.115+1372.11+148.776C1376.77+153.434+1377.19+167.624+1377.43+173.263C1377.63+177.872+1377.25+182.493+1377.43+187.103C1378.11+204.618+1380.38+222.097+1383.82+239.271C1386.74+253.884+1390.08+268.672+1394.47+282.922C1397.45+292.608+1402.04+301.643+1404.05+311.668C1406.2+322.443+1408.76+333.634+1409.37+344.672C1409.9+354.256+1409.92+363.948+1411.5+373.418C1412.81+381.296+1415.15+389.05+1416.82+396.84C1421.27+417.589+1418.87+438.871+1422.15+459.655C1424.04+471.659+1425.99+483.98+1428.54+495.853C1430.8+506.432+1436.09+515.969+1440.25+525.664C1446.8+540.946+1451.99+556.625+1457.28+572.508C1458.33+575.67+1459.95+587.955+1461.54+589.543C1464.83+592.831+1467.4+598.279+1471.12+601.254C1472.98+602.741+1475.6+603.02+1477.51+604.448C1480.86+606.959+1479.43+614.882+1482.83+618.289C1486.94+622.401+1497.39+620.121+1502+619.353" opacity="1" fill="#3d50bc"/>
</g>
</svg>
