<?xml version="1.0" encoding="UTF-8" standalone="no"?> <!-- Created with Vectornator for iOS (http://vectornator.io/) --><!DOCTYPE svg PUBLIC "-//W3C//DTD SVG 1.1//EN" "http://www.w3.org/Graphics/SVG/1.1/DTD/svg11.dtd">
<svg height="100%" style="fill-rule:evenodd;clip-rule:evenodd;stroke-linecap:round;stroke-linejoin:round;" xmlns:xlink="http://www.w3.org/1999/xlink" xmlns="http://www.w3.org/2000/svg" xml:space="preserve" width="100%" xmlns:vectornator="http://vectornator.io" version="1.1" viewBox="0 0 1366 768">
<metadata>
<vectornator:setting key="DimensionsVisible" value="1"/>
<vectornator:setting key="PencilOnly" value="0"/>
<vectornator:setting key="SnapToPoints" value="0"/>
<vectornator:setting key="OutlineMode" value="0"/>
<vectornator:setting key="CMYKEnabledKey" value="0"/>
<vectornator:setting key="RulersVisible" value="1"/>
<vectornator:setting key="SnapToEdges" value="0"/>
<vectornator:setting key="GuidesVisible" value="1"/>
<vectornator:setting key="DisplayWhiteBackground" value="0"/>
<vectornator:setting key="doHistoryDisabled" value="0"/>
<vectornator:setting key="SnapToGuides" value="1"/>
<vectornator:setting key="TimeLapseWatermarkDisabled" value="0"/>
<vectornator:setting key="Units" value="Pixels"/>
<vectornator:setting key="DynamicGuides" value="0"/>
<vectornator:setting key="IsolateActiveLayer" value="0"/>
<vectornator:setting key="SnapToGrid" value="0"/>
</metadata>
<defs/>
<g id="Layer 3" vectornator:layerName="Layer 3">
<path d="M1466.3+93.6858C1456.27+91.1796+1450.8+103.617+1446.07+110.72C1430.76+133.687+1417.55+157.892+1402.42+180.987C1389.95+200.017+1363.57+242.118+1335.34+237.414C1326.03+235.862+1315.61+220.778+1306.6+224.638C1300.55+227.232+1296.61+235.651+1292.76+240.608C1286.53+248.619+1279.1+256.423+1271.46+262.966C1267.33+266.512+1263.9+271.067+1257.62+269.354C1248.78+266.943+1239.58+259.278+1232.07+254.449C1213.69+242.631+1195.87+229.491+1185.23+209.733C1165.78+173.621+1152.18+138.397+1105.38+134.143C1096.02+133.292+1086.08+132.219+1076.63+133.078C1057.5+134.817+1036.45+143.19+1019.14+151.177C1011.47+154.719+1002.44+157.604+995.718+162.888C975.412+178.843+962.966+202.556+940.356+216.121C928.383+223.305+913.308+223.744+899.899+224.638C887.999+225.432+876.564+223.246+864.766+222.509C848.715+221.506+832.578+224.032+816.856+219.315C807.826+216.606+799.691+208.785+790.24+207.604C781.125+206.465+771.358+210.416+763.624+215.056C762.763+215.573+762.468+216.942+761.494+217.186C759.487+217.688+757.893+215.14+756.171+213.992C751.468+210.856+745.768+208.717+740.201+207.604C716.648+202.893+692.35+203.441+668.869+198.022C655.954+195.041+643.1+187.373+631.606+180.987C627.764+178.853+623.713+178.638+619.895+176.729C615.18+174.371+609.152+170.147+603.925+169.276C597.493+168.204+590.956+167.244+584.761+170.341C581.598+171.923+578.863+174.073+575.18+174.6C562.334+176.435+547.721+176.747+534.723+175.664C525.863+174.926+516.245+174.41+508.106+170.341C494.116+163.346+486.492+147.15+468.714+150.112C453.648+152.624+444.398+165.434+435.71+176.729C423.276+192.893+411.651+211.434+397.382+225.703C395.349+227.736+394.036+231.178+392.059+233.156C382.614+242.6+370.012+240.196+357.99+243.802C336.27+250.318+313.865+255.149+290.917+253.384C272.438+251.963+254.886+246.238+236.619+243.802C206.708+239.814+175.596+237.694+147.188+226.768C139.327+223.744+130.028+218.493+123.766+212.927C109.453+200.205+106.855+187.633+84.3737+186.311C63.6202+185.09+44.761+190.026+24.753+194.828C2.35562+200.203-19.8307+205.909-42.3202+210.798C-55.6602+213.698-68.921+216.987-82.7771+216.121C-104.988+214.733-115.475+198.937-130.687+185.246C-141.86+175.19-154.058+167.744-169.014+166.082C-175.316+165.382-183.044+163.327-189.243+166.082C-216.404+178.154-226.894+224.694-231.829+250.19C-232.993+256.205-234.307+262.205-235.023+268.289C-237.251+287.232-236.087+306.761-236.087+325.781C-236.087+380.128-227.067+432.615-210.536+484.414C-202.418+509.851-193.105+534.793-177.531+556.811C-142.514+606.318-86.4489+633.759-33.803+660.082C14.4302+684.199+63.4992+705.046+115.249+720.768C159.631+734.251+204.987+741.989+250.46+750.578C302.839+760.472+355.242+768.589+408.029+776.13C504.82+789.957+601.523+805.507+698.68+816.586C779.371+825.788+860.332+831.519+941.421+835.75C1022.71+839.991+1104.4+843.655+1185.23+853.849C1255.53+862.716+1325.52+876.933+1393.9+895.371C1467.48+915.212+1540.72+936.25+1614.28+956.056C1657.55+967.705+1700.61+982.046+1745.24+987.996C1758.29+989.736+1771.51+989.061+1784.63+989.061" opacity="1" fill="#0b1860"/>
<path d="M1069.42+204.294C1067.4+202.775+1063.24+202.411+1063.24+199.881C1063.24+196.367+1070.61+188.096+1072.07+185.758C1081.78+170.224+1090.64+157.809+1105.61+146.922C1113.98+140.837+1125.86+142.539+1134.74+137.213C1139.77+134.193+1142.62+128.44+1147.1+124.856C1150.69+121.982+1156.14+121.989+1159.45+118.678C1166.27+111.857+1170.21+102.449+1174.46+93.9641C1175.78+91.3185+1176.72+87.2894+1178.87+85.1377C1181.71+82.2969+1186.86+80.703+1190.34+78.9593C1198.88+74.6913+1208.24+70.487+1215.94+64.8371C1228.26+55.8062+1238.49+44.2119+1251.25+35.7101C1265.13+26.4517+1277.57+15.044+1292.73+7.46569C1296.72+5.4687+1305.07+1.86469+1309.5+4.81778C1314.8+8.3522+1317.08+16.0496+1319.21+21.5879C1323.75+33.3935+1325.36+47.5213+1333.33+57.776C1339.58+65.8134+1346.96+69.7795+1356.28+73.6635C1359.13+74.8491+1365.38+76.2469+1367.75+78.0766C1370.47+80.1674+1377+89.6288+1378.35+92.1988C1395.32+124.61+1396+162.506+1396+198.115C1396+231.954+1394.9+266.02+1399.53+299.619C1401.46+313.609+1403.88+327.446+1407.47+341.102C1410.35+352.029+1415.39+362.21+1418.95+372.877C1427.21+397.676+1433.76+423.058+1444.54+447.019C1451.85+463.255+1461.29+478.744+1469.26+494.681C1472.88+501.934+1476.29+509.438+1477.2+517.63C1479.09+534.647+1476.65+553.618+1471.02+569.705C1466.48+582.679+1459.55+598.011+1459.55+612.072" opacity="1" fill="#0b1860"/>
<path d="M1246.46+596.468C1237.86+596.468+1228.16+591.251+1219.98+588.525C1210.8+585.465+1199.5+585.788+1189.97+584.994C1175.63+583.799+1162.05+579.698+1147.6+579.698C1145.25+579.698+1142.81+579.052+1140.54+579.698C1134.68+581.372+1131.9+590.899+1129.95+595.586C1126.03+604.993+1122.51+612.314+1111.42+613.238C1102.3+613.998+1093.19+613.64+1084.05+614.121C1063.82+615.186+1043.93+620.651+1024.92+627.361C1015.61+630.644+1005.79+634.651+998.438+641.483C990.765+648.607+985.954+658.61+981.668+667.962C972.128+688.775+965.62+711.94+967.545+735.042C969.33+756.454+973.967+776.471+961.367+795.944C955.601+804.854+947.781+810.187+939.301+816.245C922.827+828.012+904.541+836.656+887.225+847.137C834.207+879.227+780.153+909.97+723.938+936.284C699.497+947.724+674.055+957.123+649.796+968.941C632.907+977.169+616.244+987.159+600.368+997.185C552.931+1027.15+510.913+1066.51+460.029+1090.75C441.26+1099.68+423.85+1112.6+409.719+1127.82C400.113+1138.16+394.163+1150.44+382.357+1158.71C368.852+1168.16+348.168+1167.78+337.343+1180.77C335.279+1183.25+334.901+1185.93+332.047+1187.84C329.385+1189.61+326.533+1190.82+331.164+1193.13" opacity="1" fill="#0b1860"/>
<path d="M1003.23+195.467C1001.01+193.256+999.592+190.224+997.047+188.406C992.243+184.975+984.104+186.641+978.512+186.641C958.38+186.641+939.429+193.925+919.375+195.467C911.692+196.058+904.018+195.217+896.426+194.585C883.824+193.535+870.979+195.976+858.473+193.702C844.544+191.17+831.651+184.858+816.989+187.524C813.327+188.189+810.036+190.274+806.397+191.054C796.843+193.101+787.595+195.492+778.153+198.115C758.701+203.519+726.472+214.281+722.547+237.834C721.238+245.688+728.842+255.053+733.138+260.783C746.296+278.326+768.13+284.884+787.862+292.557C795.083+295.366+802.708+297.513+809.045+302.266C817.441+308.563+831.198+322.829+834.642+333.159C839+346.234+841.65+366.095+849.647+377.291C854.154+383.601+860.915+388.559+866.417+394.061" opacity="1" fill="#0b1860"/>
<path d="M185.491+281.868C172.846+281.868+173.046+260.649+171.805+251.336C168.316+225.172+160.186+195.49+143.379+174.482C137.757+167.454+130.032+169.45+122.323+168.165C108.375+165.84+93.9265+166.42+80.2109+161.848C76.8182+160.717+75.7281+159.08+72.8413+157.637C68.8606+155.647+63.955+155.183+60.2076+152.373C50.8034+145.32+46.075+133.577+37.046+126.053C32.6982+122.43+25.7027+121.056+20.2011+121.842C18.0879+122.144+15.9899+123.245+13.8843+122.894C11.0159+122.416+8.80385+117.356+6.51468+115.525C0.560725+110.762-6.67641+107.828-12.4358+102.891C-31.2636+86.7531-43.8754+64.6324-59.8119+46.0398C-66.0548+38.7565-77.8538+41.313-82.9736+32.3534C-86.3004+26.5315-88.3952+19.8605-92.4488+14.4557C-95.8884+9.86959-101.023+5.88131-105.082+1.82208C-108.235-1.33077-112.567-6.83474-117.716-5.54754C-129.731-2.54382-134.203+13.0861-138.772+22.8781C-149.534+45.9393-156.854+70.7246-166.145+94.4688C-173.672+113.703-182.608+133.216-187.201+153.426C-195.369+189.364-198.477+226.246-199.835+262.917C-200.861+290.624-202.055+317.637-197.729+345.036C-193.102+374.341-193.726+411.524-178.779+437.683C-174.859+444.543-167.459+451.108-161.934+456.633C-123.489+495.078-64.6533+494.178-15.5942+509.273C-6.86391+511.959+0.924528+517.177+9.67309+519.801C17.887+522.265+30.1699+522.723+37.046+528.224C43.3515+533.268+43.7625+540.277+46.5212+547.174C49.4136+554.405+56.3789+562.631+63.3661+566.125C72.2521+570.568+82.3208+570.256+91.7917+572.441C108.251+576.24+124.972+582.11+140.221+589.286C149.585+593.693+158.323+599.663+167.594+604.026C182.171+610.885+198.405+614.694+212.864+621.923C228.673+629.827+243.294+639.436+260.24+645.085C273.48+649.498+287.981+648.459+301.3+652.454C307.003+654.165+311.954+656.666+318.144+656.666" opacity="1" fill="#0b1860"/>
<path d="M204.236+675.647C203.534+675.296+201.905+675.346+202.13+674.594C203.168+671.133+205.664+668.291+207.394+665.119C208.943+662.278+211.653+659.691+214.764+658.802C221.488+656.881+228.533+660.26+234.767+661.96C243.824+664.431+253.847+666.172+263.193+666.172C266.935+666.172+275.679+664.58+278.985+667.224C283.17+670.573+283.639+678.444+284.249+683.017C285.848+695.011+285.548+709.583+294.777+718.812C300.395+724.43+311.847+725.906+318.991+728.287C335.676+733.849+352.657+737.762+370.579+737.762C379.566+737.762+393.733+735.069+402.163+738.815C416.689+745.271+422.315+761.246+428.483+774.61C436.312+791.573+443.034+811.653+457.961+824.092C467.38+831.941+479.569+829.431+490.598+833.567C502.971+838.207+515.491+840.875+528.499+843.043C530.518+843.379+531.933+845.286+533.763+846.201C537.328+847.984+541.59+849.004+545.344+850.412C555.916+854.377+566.584+858.613+576.928+863.046C577.244+863.181+587.191+866.469+585.35+868.31C583.23+870.43+579.499+866.694+576.928+865.151" opacity="1" fill="#0b1860"/>
<path d="M-187.253+498.124C-180.179+480.44-157.569+480.086-141.499+476.593C-116.78+471.219-92.411+464.976-67.4868+460.445C-44.2079+456.212-20.712+452.974+2.48888+448.333C43.132+440.205+83.6296+429.923+124.946+425.457C166.798+420.932+210.851+421.043+252.786+424.111C337.746+430.328+423.262+438.914+508.467+438.914C540.28+438.914+572.474+437.695+604.01+442.951C661.943+452.606+720.058+467.509+778.949+469.864C800.683+470.734+822.343+467.745+843.542+463.136C853.859+460.893+864.017+457.717+874.493+456.408C895.034+453.84+917.075+454.163+937.74+455.062C975.386+456.699+1012.04+468.401+1049.43+472.556C1086.19+476.64+1124.14+479.49+1159.78+490.05C1170.96+493.363+1181.18+499.355+1192.07+503.507C1204.27+508.151+1217.35+511.483+1229.75+515.618C1244.72+520.605+1259.3+526.519+1274.16+531.766C1286.6+536.157+1297.73+539.719+1309.15+546.568C1381.8+590.159+1441.38+675.912+1450.45+760.532C1452.69+781.478+1454.6+809.753+1450.45+830.508C1446.38+850.846+1433.6+866.881+1423.53+884.336C1419.72+890.941+1416.62+897.942+1412.77+904.521C1368.4+980.214+1300.19+1035.4+1232.45+1088.88C1186.1+1125.47+1140.26+1162.43+1095.19+1200.57C1058.35+1231.74+1022.78+1265.76+979.457+1288.04C945.214+1305.65+907.749+1311.53+870.456+1318.99C849.919+1323.1+829.249+1326.54+808.555+1329.76C744.317+1339.75+680.347+1359.62+614.776+1358.02C572.202+1356.98+532.226+1340.9+493.664+1324.37C447.895+1304.76+403.426+1282.33+357.75+1262.47C337.335+1253.6+324.27+1246.98+302.577+1242.29C275.511+1236.44+246.642+1238.25+219.144+1238.25C212.864+1238.25+206.512+1239.21+200.305+1238.25C191.085+1236.83+182.474+1231.1+173.391+1228.83C172.414+1228.59+165.702+1226.45+163.971+1227.49C158.811+1230.58+160.494+1238.81+163.971+1242.29C171.679+1250+183.436+1255.06+193.576+1258.44" opacity="1" fill="#0b1860"/>
</g>
</svg>
